<svg width="84" height="84" viewBox="0 0 84 84" fill="none" xmlns="http://www.w3.org/2000/svg">
<rect x="0.75" y="0.75" width="82.5" height="82.5" rx="8.25" stroke="#F6A117" stroke-opacity="0.2" stroke-width="1.5"/>
<path fill-rule="evenodd" clip-rule="evenodd" d="M23.5 22.0938C22.7233 22.0938 22.0938 22.7233 22.0938 23.5C22.0938 24.2767 22.7233 24.9062 23.5 24.9062H27.402L28.1357 27.8411L31.7163 42.1632C29.6567 42.533 28.0937 44.334 28.0937 46.5C28.0937 48.9335 30.0665 50.9063 32.5 50.9063H55.5C56.2766 50.9063 56.9063 50.2766 56.9063 49.5C56.9063 48.7234 56.2766 48.0938 55.5 48.0938H32.5C31.6198 48.0938 30.9063 47.3802 30.9063 46.5C30.9063 45.6198 31.6198 44.9063 32.5 44.9063H33.5H55.5C56.1453 44.9063 56.7078 44.4671 56.8643 43.8411L60.8643 27.8411C60.9693 27.421 60.8749 26.9759 60.6084 26.6346C60.3419 26.2933 59.933 26.0937 59.5 26.0937H30.598L29.8643 23.1589C29.7078 22.5329 29.1453 22.0938 28.5 22.0938H23.5ZM33.5 54.0938C31.6188 54.0938 30.0938 55.6188 30.0938 57.5C30.0938 59.3812 31.6188 60.9063 33.5 60.9063C35.3812 60.9063 36.9063 59.3812 36.9063 57.5C36.9063 55.6188 35.3812 54.0938 33.5 54.0938ZM53.5 54.0938C51.6188 54.0938 50.0938 55.6188 50.0938 57.5C50.0938 59.3812 51.6188 60.9063 53.5 60.9063C55.3812 60.9063 56.9063 59.3812 56.9063 57.5C56.9063 55.6188 55.3812 54.0938 53.5 54.0938Z" fill="#F6A117"/>
</svg>
