<svg width="64" height="64" viewBox="0 0 64 64" fill="none" xmlns="http://www.w3.org/2000/svg">
<path fill-rule="evenodd" clip-rule="evenodd" d="M53.3333 2.66663C57.7517 2.66663 61.3333 6.24836 61.3333 10.6666V53.3333C61.3333 57.7517 57.7517 61.3333 53.3333 61.3333H10.6667C6.2484 61.3333 2.66666 57.7517 2.66666 53.3333V10.6666C2.66666 6.24836 6.2484 2.66663 10.6667 2.66663H53.3333ZM53.3333 7.99996C54.8061 7.99996 56 9.19388 56 10.6666V53.3333C56 54.8061 54.8061 56 53.3333 56H40V37.333H45.5365C46.6843 37.333 47.7032 36.5986 48.0664 35.5096L49.2477 31.9656C49.6795 30.6704 48.7155 29.333 47.3504 29.333H40V23.9997C40 22.6664 41.3333 21.3331 42.6667 21.3331H48C49.4728 21.3331 50.6667 20.1392 50.6667 18.6664V16.8371C50.6667 15.9757 50.1165 15.2034 49.2835 14.9836C45.788 14.0612 42.6667 14.0612 42.6667 14.0612C36 14.0612 32 18.6664 32 22.6664V29.333H26.6667C25.1939 29.333 24 30.5269 24 31.9997V34.6664C24 36.1392 25.1939 37.333 26.6667 37.333H32V56H10.6667C9.19392 56 8 54.8061 8 53.3333V10.6666C8 9.19388 9.19392 7.99996 10.6667 7.99996H53.3333Z" fill="white"/>
</svg>
