<svg width="64" height="64" viewBox="0 0 64 64" fill="none" xmlns="http://www.w3.org/2000/svg">
<path fill-rule="evenodd" clip-rule="evenodd" d="M32 48C40.8365 48 48 40.8365 48 32C48 23.1634 40.8365 16 32 16C23.1634 16 16 23.1634 16 32C16 40.8365 23.1634 48 32 48ZM32 42.6667C37.8909 42.6667 42.6667 37.8909 42.6667 32C42.6667 26.109 37.8909 21.3333 32 21.3333C26.109 21.3333 21.3333 26.109 21.3333 32C21.3333 37.8909 26.109 42.6667 32 42.6667Z" fill="white"/>
<path d="M48 13.3334C46.5272 13.3334 45.3333 14.5273 45.3333 16C45.3333 17.4728 46.5272 18.6667 48 18.6667C49.4728 18.6667 50.6667 17.4728 50.6667 16C50.6667 14.5273 49.4728 13.3334 48 13.3334Z" fill="white"/>
<path fill-rule="evenodd" clip-rule="evenodd" d="M4.41056 11.4028C2.66667 14.8254 2.66667 19.3058 2.66667 28.2666V35.7333C2.66667 44.6941 2.66667 49.1746 4.41056 52.597C5.94454 55.6077 8.39222 58.0554 11.4028 59.5893C14.8254 61.3333 19.3058 61.3333 28.2667 61.3333H35.7333C44.6941 61.3333 49.1747 61.3333 52.5971 59.5893C55.6077 58.0554 58.0555 55.6077 59.5893 52.597C61.3333 49.1746 61.3333 44.6941 61.3333 35.7333V28.2666C61.3333 19.3058 61.3333 14.8254 59.5893 11.4028C58.0555 8.39217 55.6077 5.94449 52.5971 4.41052C49.1747 2.66663 44.6941 2.66663 35.7333 2.66663H28.2667C19.3058 2.66663 14.8254 2.66663 11.4028 4.41052C8.39222 5.94449 5.94454 8.39217 4.41056 11.4028ZM35.7333 7.99996H28.2667C23.6982 7.99996 20.5927 8.00412 18.1922 8.20023C15.854 8.39127 14.6582 8.73753 13.8241 9.16255C11.817 10.1852 10.1853 11.817 9.16259 13.8241C8.73758 14.6582 8.39131 15.8539 8.20027 18.1922C8.00416 20.5926 8 23.6982 8 28.2666V35.7333C8 40.3018 8.00416 43.4072 8.20027 45.8077C8.39131 48.1461 8.73758 49.3418 9.16259 50.176C10.1853 52.1829 11.817 53.8146 13.8241 54.8373C14.6582 55.2624 15.854 55.6088 18.1922 55.7997C20.5927 55.9957 23.6982 56 28.2667 56H35.7333C40.3019 56 43.4072 55.9957 45.8077 55.7997C48.1461 55.6088 49.3419 55.2624 50.176 54.8373C52.1829 53.8146 53.8147 52.1829 54.8373 50.176C55.2624 49.3418 55.6088 48.1461 55.7997 45.8077C55.9957 43.4072 56 40.3018 56 35.7333V28.2666C56 23.6982 55.9957 20.5926 55.7997 18.1922C55.6088 15.8539 55.2624 14.6582 54.8373 13.8241C53.8147 11.817 52.1829 10.1852 50.176 9.16255C49.3419 8.73753 48.1461 8.39127 45.8077 8.20023C43.4072 8.00412 40.3019 7.99996 35.7333 7.99996Z" fill="white"/>
</svg>
