<svg xmlns="http://www.w3.org/2000/svg" viewBox="0 0 500 500"><defs><style>.cls-1{fill:none;stroke:#f6a117;stroke-miterlimit:10;stroke-width:6px;}</style></defs><g id="Camada_3" data-name="Camada 3"><path class="cls-1" d="M170,491.66H328.64V386c71.92,2.32,150.49-33.52,160-88.73V182.59c-3.28-19.83-18.08-28.89-40.33-30.9C426.1,155.39,412,164,410,180.1V298.24c-9.7,25.41-37.31,34.38-80.65,28.92V114.8C317.32,82.2,288.57,68,248.81,66,205.45,70,177.1,85.38,170,116.79V353.08c-53.92,5-79.18-17-79.31-44.87v-107C81,189.69,68.62,182.86,53.07,181.6,32.18,183,19.51,190.44,11.4,201.24V321.18c14.49,63.06,65.51,96.44,157.28,96.7Z"/><rect class="cls-1" x="231.32" y="8.34" width="35.13" height="54.57" rx="17.57"/><rect class="cls-1" x="32.85" y="126.47" width="35.13" height="54.57" rx="17.57"/><rect class="cls-1" x="428.72" y="96.98" width="35.13" height="54.57" rx="17.57"/><line class="cls-1" x1="248.81" y1="70.18" x2="248.81" y2="399.91"/><path class="cls-1" d="M231.32,70.18c-18.63,7.45-25.36,41.39-22.22,97.31"/><line class="cls-1" x1="209.1" y1="491.66" x2="209.1" y2="189.38"/><path class="cls-1" d="M266.46,70.18c14.3,6.66,20.34,30,22.88,60.32V485.15"/><line class="cls-1" x1="250" y1="491.66" x2="250" y2="425.41"/><line class="cls-1" x1="170.02" y1="350.29" x2="168.68" y2="417.88"/><line class="cls-1" x1="329.31" y1="327.16" x2="328.64" y2="385.98"/><line class="cls-1" x1="50.41" y1="189.38" x2="50.41" y2="258.24"/><path class="cls-1" d="M50.41,283.05C44.88,355.23,87.13,388.57,168.68,390"/><path class="cls-1" d="M446.29,157.63V290.42c-17,59.22-63.93,66.12-113.83,67.86"/></g></svg>