<svg width="64" height="64" viewBox="0 0 64 64" fill="none" xmlns="http://www.w3.org/2000/svg">
<path d="M47.3567 36.7753C47.232 36.7155 42.5662 34.4179 41.7371 34.1195C41.3987 33.998 41.0361 33.8793 40.6504 33.8793C40.0204 33.8793 39.4911 34.1933 39.0789 34.81C38.6128 35.5028 37.2019 37.1521 36.7659 37.6447C36.709 37.7098 36.6313 37.7875 36.5847 37.7875C36.543 37.7875 35.8209 37.4901 35.6023 37.3952C30.5972 35.221 26.7981 29.9928 26.2772 29.1111C26.2028 28.9844 26.1997 28.9268 26.1991 28.9268C26.2174 28.8597 26.3857 28.691 26.4725 28.6039C26.7267 28.3525 27.002 28.021 27.2684 27.7004C27.3945 27.5485 27.5208 27.3964 27.6449 27.253C28.0314 26.8034 28.2034 26.4543 28.4029 26.0499L28.5074 25.8399C28.9945 24.8722 28.5785 24.0555 28.4441 23.7919C28.3337 23.5712 26.3636 18.8165 26.1542 18.3169C25.6505 17.1115 24.9849 16.5503 24.0601 16.5503C23.9742 16.5503 24.0601 16.5503 23.7002 16.5655C23.2619 16.584 20.8754 16.8981 19.8203 17.5633C18.7013 18.2687 16.8083 20.5175 16.8083 24.4722C16.8083 28.0314 19.067 31.3921 20.0368 32.6702C20.0609 32.7024 20.1052 32.7679 20.1694 32.8618C23.8832 38.2856 28.513 42.3051 33.2064 44.18C37.7249 45.9849 39.8645 46.1935 41.0809 46.1935H41.0812C41.5923 46.1935 42.0015 46.1534 42.3624 46.1179L42.5914 46.0961C44.1523 45.9577 47.5826 44.1802 48.3628 42.0119C48.9775 40.3041 49.1395 38.4381 48.7306 37.7609C48.4505 37.3004 47.9678 37.0687 47.3567 36.7753Z" fill="white"/>
<path d="M32.5681 0C15.2349 0 1.13325 13.9956 1.13325 31.1985C1.13325 36.7626 2.62229 42.209 5.44307 46.9758L0.0440037 62.902C-0.0565677 63.199 0.0182374 63.5273 0.237874 63.7509C0.396419 63.9127 0.611484 64 0.83112 64C0.915276 64 1.00006 63.9873 1.08276 63.9609L17.6895 58.6838C22.2339 61.1119 27.3701 62.3936 32.5683 62.3936C49.8998 62.3938 63.9999 48.3996 63.9999 31.1985C63.9999 13.9956 49.8998 0 32.5681 0ZM32.5681 55.8949C27.6768 55.8949 22.9394 54.4825 18.8671 51.8103C18.7301 51.7203 18.5712 51.6742 18.4112 51.6742C18.3266 51.6742 18.2418 51.6871 18.1593 51.7132L9.84037 54.3576L12.5259 46.4347C12.6127 46.1783 12.5693 45.8955 12.4093 45.6769C9.30821 41.4396 7.66894 36.4332 7.66894 31.1985C7.66894 17.5792 18.8386 6.49891 32.5678 6.49891C46.2954 6.49891 57.4638 17.5792 57.4638 31.1985C57.4641 44.8162 46.2958 55.8949 32.5681 55.8949Z" fill="white"/>
</svg>
